<svg transform="scale(1)" version="1.1" id="Layer_1" xmlns="http://www.w3.org/2000/svg" xmlns:xlink="http://www.w3.org/1999/xlink" x="0px" y="0px" viewBox="0 0 500 500" xml:space="preserve" class="show_show__wrapper__graphic__5Waiy "><title>React</title><style type="text/css">
	.st0{fill:#D1D3D4;}
	.st1{fill:#FFFFFF;}
	.st2{fill:#231F20;}
	.st3{fill:#007bff;}
</style><path class="st0" id="Floor" d="M411.3,382.6H88.7c-0.4,0-0.7-0.3-0.7-0.7c0-0.4,0.3-0.7,0.7-0.7h322.6c0.4,0,0.7,0.3,0.7,0.7
	C412,382.3,411.7,382.6,411.3,382.6z"></path><g id="Monitor"><path class="st1" d="M406.9,141.9v194.4c0,7.5-6.1,13.6-13.6,13.6H106.7c-7.5,0-13.6-6.1-13.6-13.6V141.9c0-7.5,6.1-13.6,13.6-13.6
		l0,0h286.6C400.8,128.3,406.9,134.4,406.9,141.9L406.9,141.9z"></path><path class="st2" d="M393.3,350.5H106.7c-7.9,0-14.2-6.4-14.2-14.2V141.9c0-7.9,6.4-14.2,14.2-14.2h286.6c7.9,0,14.2,6.4,14.2,14.2
		v194.4C407.5,344.2,401.2,350.5,393.3,350.5z M106.7,128.9c-7.2,0-13,5.8-13,13v194.4c0,7.2,5.8,13,13,13l0,0h286.6
		c7.2,0,13-5.8,13-13l0,0V141.9c0-7.2-5.8-13-13-13l0,0L106.7,128.9z"></path><path class="st2" d="M406.9,141.9v172.6H93.1V141.9c0-7.5,6.1-13.6,13.6-13.6l0,0h286.6C400.8,128.3,406.9,134.4,406.9,141.9
		L406.9,141.9z"></path><rect class="st1" x="106" y="144.4" width="284.3" height="157.2"></rect><path class="st2" d="M390.3,302.3H106c-0.3,0-0.6-0.3-0.6-0.6c0,0,0,0,0,0V144.4c0-0.4,0.3-0.6,0.6-0.6h284.3
		c0.4,0,0.6,0.3,0.6,0.6v0v157.3C390.9,302,390.6,302.3,390.3,302.3z M106.6,301h283V145h-283L106.6,301z"></path><path class="st0" d="M250,339.4c-4,0-7.2-3.2-7.2-7.2s3.2-7.2,7.2-7.2c4,0,7.2,3.2,7.2,7.2C257.2,336.2,254,339.4,250,339.4z
		 M250,326.4c-3.2,0-5.8,2.6-5.8,5.8c0,3.2,2.6,5.8,5.8,5.8c3.2,0,5.8-2.6,5.8-5.8c0,0,0,0,0,0C255.8,329,253.2,326.4,250,326.4
		C250,326.4,250,326.4,250,326.4L250,326.4z"></path><path class="st1" d="M295.7,374.6c-3.7-4.4-4.3-24.7-4.3-24.7h-82.7c0,0-0.6,20.2-4.3,24.7S186,386.2,186,388.8s2.2,3.5,12.7,3.5
		h102.6c10.5,0,12.7-0.9,12.7-3.5S299.4,379,295.7,374.6z"></path><path class="st2" d="M301.3,392.9H198.7c-10.5,0-13.4-0.9-13.4-4.1c0-1.6,3.2-3.8,8.8-7.4c3.9-2.5,8-5.2,9.6-7.2
		c3.5-4.2,4.2-24.1,4.2-24.3c0-0.3,0.3-0.6,0.6-0.6h82.7c0.3,0,0.6,0.3,0.6,0.6c0,0.2,0.7,20.1,4.2,24.3l0,0c1.7,2,5.7,4.6,9.6,7.2
		c5.6,3.7,8.8,5.8,8.8,7.4C314.6,392,311.8,392.9,301.3,392.9z M209.3,350.5c-0.1,3.5-1,20.3-4.5,24.4c-1.8,2.1-5.9,4.8-9.9,7.4
		c-3.3,2.1-8.2,5.4-8.2,6.4c0,1.7,0.9,2.9,12.1,2.9h102.5c11.2,0,12.1-1.2,12.1-2.9c0-1-5-4.2-8.2-6.4c-4-2.6-8.1-5.3-9.9-7.4l0,0
		c-3.5-4.1-4.3-20.9-4.5-24.4H209.3z"></path></g><g id="Bags"><polygon class="st1" points="422.7,389.1 357.9,389.1 366.3,337.6 414.3,337.6 	"></polygon><path class="st2" d="M422.7,389.8h-64.8c-0.2,0-0.4-0.1-0.5-0.2c-0.1-0.2-0.2-0.4-0.2-0.6l8.4-51.5c0.1-0.3,0.3-0.6,0.7-0.6h48
		c0.3,0,0.6,0.2,0.7,0.6l8.4,51.5c0,0.2,0,0.4-0.2,0.6C423.1,389.7,422.9,389.8,422.7,389.8z M358.7,388.4h63.1l-8.1-50.1h-46.8
		L358.7,388.4z"></path><path class="st2" d="M375.8,345.2h-0.1c-0.4-0.1-0.6-0.4-0.6-0.8c0.1-0.9,3.5-20.8,15.2-20.8s15.1,19.9,15.2,20.8
		c0.1,0.4-0.2,0.7-0.6,0.8c0,0,0,0,0,0c-0.4,0.1-0.7-0.2-0.8-0.6c0,0,0,0,0,0c0-0.2-3.4-19.6-13.8-19.6s-13.8,19.4-13.9,19.6
		C376.4,345,376.1,345.3,375.8,345.2z"></path><polygon class="st1" points="377.6,393.4 333.1,393.4 338.8,357.9 371.9,357.9 	"></polygon><path class="st2" d="M377.6,394.1h-44.6c-0.2,0-0.4-0.1-0.5-0.2c-0.1-0.2-0.2-0.4-0.2-0.6l5.8-35.4c0.1-0.3,0.3-0.6,0.7-0.6h33
		c0.3,0,0.6,0.2,0.7,0.6l5.8,35.4c0,0.2,0,0.4-0.2,0.6C378,394,377.8,394,377.6,394.1z M333.9,392.7h42.9l-5.5-34h-31.9L333.9,392.7
		z"></path><path class="st2" d="M365.4,363.4c-0.3,0-0.6-0.3-0.7-0.6c0-0.1-2.3-13.3-9.3-13.3s-9.3,13.2-9.3,13.3c-0.1,0.4-0.4,0.6-0.8,0.6
		c-0.4-0.1-0.6-0.4-0.6-0.8c0,0,0,0,0,0c0.1-0.6,2.5-14.5,10.7-14.5s10.6,13.9,10.7,14.5c0.1,0.4-0.2,0.7-0.6,0.8L365.4,363.4z"></path></g><g id="Screen"><path class="st1" d="M155.9,168c-0.1,2.4,5.6,49.6-42.6,79.1c0,0,28,21.5,42.6,54.7H106V163.9L155.9,168z"></path><path class="st2" d="M155.9,302.3H106c-0.3,0-0.6-0.3-0.6-0.6c0,0,0,0,0,0V163.9c0-0.2,0.1-0.3,0.2-0.5c0.1-0.1,0.3-0.2,0.5-0.2
		l50,4.1c0.3,0,0.6,0.3,0.6,0.7c0,0.1,0,0.5,0,0.9c0.8,15.2-1.9,53.1-42.2,78.2c4.5,3.6,28.9,24.4,42.1,54.3c0.1,0.3,0,0.7-0.3,0.8
		C156.1,302.3,156,302.3,155.9,302.3L155.9,302.3z M106.6,301H155c-14.5-32.1-41.8-53.3-42.1-53.5c-0.2-0.1-0.3-0.3-0.2-0.5
		c0-0.2,0.1-0.4,0.3-0.5c40.5-24.7,43.1-62.4,42.4-77.5c0-0.2,0-0.3,0-0.4l-48.7-4L106.6,301z"></path><path class="st0" d="M131,293.5c-0.4,0-0.7-0.3-0.7-0.7c-0.6-13.6-11.1-34-17.2-44.9c-0.5-0.9-0.5-0.9-0.5-1.2
		c0.1-0.4,0.4-0.6,0.8-0.6c0.2,0,0.4,0.2,0.5,0.4l0.4,0.7c6.2,11,16.8,31.6,17.4,45.5C131.7,293.2,131.4,293.5,131,293.5
		C131,293.5,131,293.5,131,293.5L131,293.5z"></path><path class="st0" d="M111.3,243.4c-0.4,0-0.7-0.3-0.7-0.7c0-0.2,0.1-0.3,0.2-0.4c0.1-0.1,9-11.5,14.2-36.4c0.1-0.4,0.5-0.6,0.8-0.5
		c0.4,0.1,0.6,0.5,0.5,0.8c0,0,0,0,0,0c-5.3,25.2-14.1,36.5-14.4,37C111.7,243.3,111.5,243.4,111.3,243.4z"></path><path class="st1" d="M106,242.6h11.7c1.7,0,3,1.3,3,3v2.4c0,1.7-1.3,3-3,3H106l0,0V242.6L106,242.6z"></path><path class="st2" d="M116.4,251.7H106c-0.4,0-0.6-0.3-0.6-0.6v-8.4c0-0.4,0.3-0.6,0.6-0.6c0,0,0,0,0,0h10.4c2.7-0.1,5,2,5.1,4.6
		s-2,5-4.6,5.1C116.7,251.7,116.6,251.7,116.4,251.7L116.4,251.7z M106.6,250.5h9.8c2,0.1,3.7-1.4,3.8-3.4c0.1-2-1.4-3.7-3.4-3.8
		c-0.1,0-0.3,0-0.4,0h-9.8V250.5z"></path><path class="st0" d="M129.6,223.8c-0.1,0-0.3,0-0.4-0.1c-0.3-0.2-0.4-0.6-0.3-0.9c0,0,0,0,0-0.1c5.6-8.9,10.3-24.5,10.3-24.7
		c0.1-0.4,0.5-0.6,0.9-0.4c0.3,0.1,0.5,0.5,0.4,0.8c-0.1,0.2-4.8,15.9-10.5,25C130.1,223.6,129.9,223.7,129.6,223.8z"></path><path class="st1" d="M340.3,168c0.1,2.4-5.6,49.6,42.6,79.1c0,0-28,21.5-42.6,54.7h50V163.9L340.3,168z"></path><path class="st2" d="M390.3,302.3h-50c-0.2,0-0.4-0.1-0.5-0.3c-0.1-0.2-0.1-0.4,0-0.6c13.2-29.9,37.6-50.7,42.1-54.3
		c-40.3-25.1-43-63-42.2-78.2c0-0.5,0-0.8,0-0.9c0-0.3,0.3-0.6,0.6-0.7l50-4.1c0.4,0,0.7,0.3,0.7,0.6c0,0,0,0,0,0v137.8
		C390.9,302,390.6,302.3,390.3,302.3z M341.3,301h48.3V164.6l-48.7,4c0,0.1,0,0.3,0,0.4c-0.8,15.1,1.9,52.8,42.4,77.5
		c0.2,0.1,0.3,0.3,0.3,0.5c0,0.2-0.1,0.4-0.2,0.5C383.1,247.7,355.8,269,341.3,301L341.3,301z"></path><path class="st0" d="M365.2,293.5L365.2,293.5c-0.4,0-0.7-0.3-0.7-0.7c0,0,0,0,0,0c0.6-13.9,11.2-34.5,17.4-45.5
		c0.2-0.3,0.3-0.6,0.4-0.6c0.1-0.2,0.3-0.4,0.5-0.4c0.4,0,0.7,0.2,0.8,0.6c0,0.2,0,0.2-0.5,1.2c-6.2,10.9-16.6,31.3-17.2,44.9
		C365.9,293.2,365.6,293.5,365.2,293.5C365.2,293.5,365.2,293.5,365.2,293.5z"></path><path class="st0" d="M385,243.4c-0.2,0-0.4-0.1-0.5-0.3c-0.4-0.5-9.2-11.7-14.5-37c-0.1-0.4,0.2-0.7,0.5-0.8c0,0,0,0,0,0
		c0.4-0.1,0.7,0.2,0.8,0.5c5.2,24.9,14.1,36.3,14.2,36.4c0.2,0.3,0.2,0.7-0.1,1C385.3,243.3,385.2,243.3,385,243.4L385,243.4z"></path><path class="st1" d="M390.3,251.1h-11.7c-1.7,0-3-1.3-3-3v-2.4c0-1.7,1.3-3,3-3h11.7l0,0V251.1L390.3,251.1L390.3,251.1z"></path><path class="st2" d="M390.3,251.7h-10.5c-2.7,0.1-5-2-5.1-4.6c-0.1-2.7,2-5,4.6-5.1c0.1,0,0.3,0,0.4,0h10.5c0.4,0,0.6,0.3,0.6,0.6
		v0v8.4C390.9,251.5,390.6,251.7,390.3,251.7z M379.8,243.3c-2-0.1-3.7,1.4-3.8,3.4c-0.1,2,1.4,3.7,3.4,3.8c0.1,0,0.3,0,0.4,0h9.8
		v-7.2H379.8z"></path><path class="st0" d="M366.7,223.8c-0.2,0-0.5-0.1-0.6-0.3c-5.7-9.1-10.4-24.9-10.5-25c-0.1-0.4,0.1-0.8,0.5-0.8
		c0.4-0.1,0.7,0.1,0.8,0.4c0,0.1,4.8,15.8,10.3,24.7c0.2,0.3,0.1,0.8-0.3,1C366.9,223.7,366.8,223.8,366.7,223.8L366.7,223.8z"></path><path class="st0" d="M334.5,259.8H165.5c-0.4,0-0.7-0.3-0.7-0.7l0,0V206c0-0.4,0.3-0.7,0.7-0.7h169.1c0.4,0,0.7,0.3,0.7,0.7
		c0,0,0,0,0,0v53.1C335.2,259.5,334.9,259.8,334.5,259.8z M166.2,258.4h167.7v-51.7H166.2V258.4z"></path><path class="st0" d="M334.5,300.6c-0.4,0-0.7-0.3-0.7-0.7v0v-33.3H166.2v33.3c0,0.4-0.3,0.7-0.7,0.7s-0.7-0.3-0.7-0.7c0,0,0,0,0,0
		v-34c0-0.4,0.3-0.7,0.7-0.7c0,0,0,0,0,0h169.1c0.4,0,0.7,0.3,0.7,0.7v0v34C335.2,300.3,334.9,300.6,334.5,300.6L334.5,300.6z"></path><path class="st0" d="M326.5,220.3h-87.9c-0.4,0-0.7-0.3-0.7-0.7c0-0.4,0.3-0.7,0.7-0.7h87.9c0.4,0,0.7,0.3,0.7,0.7
		C327.2,220,326.9,220.3,326.5,220.3z"></path><path class="st0" d="M326.5,230h-87.9c-0.4,0-0.7-0.3-0.7-0.7c0-0.4,0.3-0.7,0.7-0.7c0,0,0,0,0,0h87.9c0.4,0,0.7,0.3,0.7,0.7
		S326.9,230,326.5,230C326.5,230,326.5,230,326.5,230z"></path><path class="st0" d="M218.3,300.6h-0.1c-0.4-0.1-0.6-0.4-0.6-0.8l1.7-8.7c0.1-0.2,0.2-0.4,0.4-0.5c0.2-0.1,0.5-0.1,0.7,0.1l4.2,3.1
		l5.5-6.2c-2.3-3-5-5.8-7.8-8.3c-2.5-2.1-5.3-3.8-8.3-5c-1,0.6-4.5,2.4-10.4,2.4s-9.4-1.8-10.4-2.4c-2.5,1-4.8,2.2-7.1,3.5
		c-4.2,2.3-7.6,7.1-8.5,8.5l4.5,6.1l5.1-2.4c0.2-0.1,0.4-0.1,0.6,0c0.2,0.1,0.3,0.3,0.4,0.5l1.4,9.3c0,0.4-0.2,0.7-0.6,0.8
		c-0.4,0-0.7-0.2-0.8-0.5l-1.3-8.3l-4.7,2.2c-0.3,0.1-0.7,0-0.9-0.2l-5.2-6.9c-0.2-0.2-0.2-0.5,0-0.8c0.2-0.3,4-6.4,9.2-9.4
		c2.4-1.5,5-2.7,7.7-3.7c0.2-0.1,0.4,0,0.6,0.1c0,0,3.5,2.3,10,2.3s9.9-2.3,10-2.3c0.2-0.1,0.4-0.1,0.6-0.1c3.3,1.2,6.4,3,9.1,5.4
		c3.1,2.7,5.9,5.7,8.4,9c0.2,0.3,0.2,0.6,0,0.9l-6.3,7.1c-0.2,0.3-0.7,0.3-0.9,0.1l-3.8-2.9L219,300
		C219,300.4,218.6,300.6,218.3,300.6z"></path><path class="st0" d="M202.4,283.3L202.4,283.3c-7,0-9.7-9.1-9.8-9.5c-0.1-0.4,0.1-0.8,0.5-0.9c0.4-0.1,0.8,0.1,0.9,0.5
		c0,0.1,2.5,8.5,8.5,8.5c6.6,0.1,10.9-8.5,10.9-8.6c0.2-0.3,0.6-0.5,0.9-0.3c0,0,0,0,0,0c0.3,0.2,0.5,0.6,0.3,0.9
		C214.4,274.3,209.8,283.3,202.4,283.3z"></path><path class="st3" d="M295.8,236.9h27.5c1.8,0,3.2,1.4,3.2,3.2v2.6c0,1.8-1.4,3.2-3.2,3.2h-27.5c-1.8,0-3.2-1.4-3.2-3.2v-2.6
		C292.5,238.3,294,236.9,295.8,236.9z"></path><path class="st0" d="M326.5,281.8h-87.9c-0.4,0-0.7-0.3-0.7-0.7c0-0.4,0.3-0.7,0.7-0.7h87.9c0.4,0,0.7,0.3,0.7,0.7
		C327.2,281.5,326.9,281.8,326.5,281.8z"></path><path class="st0" d="M309.5,291.5h-71c-0.4,0-0.7-0.3-0.7-0.7c0-0.4,0.3-0.7,0.7-0.7c0,0,0,0,0,0h71c0.4,0,0.7,0.3,0.7,0.7
		S309.9,291.5,309.5,291.5C309.5,291.5,309.5,291.5,309.5,291.5z"></path><path class="st0" d="M221.8,249.4h-17.4c-0.4,0-0.7-0.3-0.7-0.6l-0.9-8.7l-1.5,8.7c-0.1,0.3-0.4,0.6-0.7,0.6h-16.3
		c-0.2,0-0.4-0.1-0.5-0.2c-0.1-0.2-0.2-0.4-0.2-0.6l3.8-31.9c0-0.4,0.3-0.6,0.7-0.6H218c0.4,0,0.6,0.3,0.7,0.6l3.8,31.9
		c0,0.2,0,0.4-0.2,0.6C222.2,249.3,222,249.4,221.8,249.4z M205.1,248H221l-3.6-30.5h-28.6l-3.6,30.5H200l2.3-13
		c0.1-0.3,0.4-0.6,0.7-0.6l0,0c0.4,0,0.6,0.3,0.7,0.6L205.1,248z"></path><path class="st0" d="M218.3,222.6h-30.8c-0.4,0-0.7-0.3-0.7-0.7c0-0.4,0.3-0.7,0.7-0.7h30.8c0.4,0,0.7,0.3,0.7,0.7
		C219,222.3,218.7,222.6,218.3,222.6z"></path><path class="st0" d="M206.6,226.6c-0.3,0-0.5-0.2-0.6-0.4l-2.3-5.6l-3.1,5.2c-0.2,0.3-0.6,0.5-1,0.3c0,0,0,0,0,0
		c-0.3-0.2-0.5-0.6-0.3-0.9c0,0,0,0,0-0.1l3.8-6.4c0.1-0.2,0.4-0.4,0.6-0.3c0.3,0,0.5,0.2,0.6,0.4l2.8,6.9c0.1,0.4,0,0.8-0.4,0.9
		c0,0,0,0,0,0C206.8,226.6,206.7,226.6,206.6,226.6z"></path><path class="st0" d="M211.6,296c-2.1,0-3.8-1.7-3.8-3.8c0-2.1,1.7-3.8,3.8-3.8s3.8,1.7,3.8,3.8l0,0
		C215.4,294.3,213.7,296,211.6,296z M211.6,289.7c-1.3,0-2.4,1.1-2.4,2.4c0,1.3,1.1,2.4,2.4,2.4c1.3,0,2.4-1.1,2.4-2.4c0,0,0,0,0,0
		C214.1,290.8,213,289.7,211.6,289.7C211.6,289.7,211.6,289.7,211.6,289.7L211.6,289.7z"></path></g><g id="Standing_Card"><polygon class="st2" points="92.6,401.3 140.5,401.3 135.2,331.8 87.4,331.8 	"></polygon><polygon class="st1" points="77.1,401.3 125,401.3 135.2,331.8 87.4,331.8 	"></polygon><path class="st2" d="M125,401.9H77.1c-0.4,0-0.6-0.3-0.6-0.6c0,0,0-0.1,0-0.1l10.2-69.5c0-0.3,0.3-0.5,0.6-0.5h47.9
		c0.2,0,0.4,0.1,0.5,0.2c0.1,0.1,0.2,0.3,0.1,0.5l-10.2,69.5C125.6,401.7,125.3,402,125,401.9z M77.8,400.7h46.6l10-68.2H87.9
		L77.8,400.7z"></path><path class="st0" d="M118,393H84.8c-0.2,0-0.4-0.1-0.5-0.2c-0.1-0.2-0.2-0.4-0.2-0.6l8.4-53.7c0.1-0.3,0.3-0.6,0.7-0.6h33.6
		c0.2,0,0.4,0.1,0.5,0.2c0.1,0.2,0.2,0.4,0.2,0.6l-8.9,53.7C118.6,392.7,118.3,393,118,393z M85.7,391.6h31.7l8.7-52.3H93.9
		L85.7,391.6z"></path><path class="st0" d="M118.6,351.9H98.1c-0.4,0-0.7-0.3-0.7-0.7c0-0.4,0.3-0.7,0.7-0.7h20.5c0.4,0,0.7,0.3,0.7,0.7
		C119.3,351.6,118.9,351.9,118.6,351.9C118.6,351.9,118.6,351.9,118.6,351.9z"></path><path class="st0" d="M114.6,360H96.9c-0.4,0-0.7-0.3-0.7-0.7c0-0.4,0.3-0.7,0.7-0.7h17.7c0.4,0,0.7,0.3,0.7,0.7
		C115.3,359.7,115,360,114.6,360C114.6,360,114.6,360,114.6,360z"></path><path class="st0" d="M116.2,368.6H95.7c-0.4,0-0.7-0.3-0.7-0.7c0-0.4,0.3-0.7,0.7-0.7h20.5c0.4,0,0.7,0.3,0.7,0.7
		C116.9,368.3,116.6,368.6,116.2,368.6C116.2,368.6,116.2,368.6,116.2,368.6z"></path><path class="st0" d="M112.2,376.7H94.5c-0.4,0-0.7-0.3-0.7-0.7c0-0.4,0.3-0.7,0.7-0.7c0,0,0,0,0,0h17.7c0.4,0,0.7,0.3,0.7,0.7
		C112.9,376.4,112.6,376.7,112.2,376.7C112.2,376.7,112.2,376.7,112.2,376.7z"></path></g><g id="Shop"><path class="st3" d="M112.8,98.7h274.4c5.1,0,9.2,4.1,9.2,9.2v9l0,0H103.6l0,0v-9C103.6,102.8,107.7,98.7,112.8,98.7
		C112.8,98.7,112.8,98.7,112.8,98.7z"></path><path class="st2" d="M396.4,117.6H103.6c-0.3,0-0.6-0.3-0.6-0.6v-5.4c0-7.5,6.1-13.5,13.5-13.5h267c7.5,0,13.5,6.1,13.5,13.5v5.4
		C397.1,117.3,396.8,117.6,396.4,117.6z M104.2,116.3h291.5v-4.7c0-6.8-5.5-12.2-12.3-12.2h-267c-6.8,0-12.2,5.5-12.3,12.2
		L104.2,116.3z"></path><polygon class="st1" points="102.1,116.9 65.6,157.5 92,157.5 123.2,116.9 	"></polygon><path class="st2" d="M92,158.1H65.6c-0.3,0-0.5-0.2-0.6-0.4c-0.1-0.2-0.1-0.5,0.1-0.7l36.4-40.5c0.1-0.1,0.3-0.2,0.5-0.2h21.1
		c0.4,0,0.6,0.3,0.6,0.7c0,0.1,0,0.2-0.1,0.3l-31.2,40.6C92.4,158,92.2,158.1,92,158.1z M67.1,156.8h24.6l30.2-39.2h-19.6
		L67.1,156.8z"></path><polygon class="st3" points="123.2,116.9 92,157.5 118.3,157.5 144.3,116.9 	"></polygon><path class="st2" d="M118.3,158.1H92c-0.2,0-0.5-0.1-0.6-0.4c-0.1-0.2-0.1-0.5,0.1-0.7l31.2-40.5c0.1-0.2,0.3-0.2,0.5-0.2h21.1
		c0.3,0,0.6,0.3,0.7,0.6c0,0.1,0,0.3-0.1,0.4l-26,40.5C118.8,158,118.5,158.1,118.3,158.1z M93.3,156.8H118l25.2-39.2h-19.7
		L93.3,156.8z"></path><polygon class="st1" points="144.3,116.9 118.3,157.5 144.6,157.5 165.5,116.9 	"></polygon><path class="st2" d="M144.6,158.1h-26.3c-0.2,0-0.4-0.1-0.6-0.3c-0.1-0.2-0.1-0.5,0-0.6l26-40.5c0.1-0.2,0.3-0.3,0.5-0.3h21.1
		c0.2,0,0.4,0.1,0.6,0.3c0.1,0.2,0.1,0.4,0,0.6l-20.8,40.5C145,158,144.9,158.1,144.6,158.1z M119.5,156.8h24.8l20.2-39.2h-19.7
		L119.5,156.8z"></path><polygon class="st3" points="165.5,116.9 144.6,157.5 171,157.5 186.6,116.9 	"></polygon><path class="st2" d="M171,158.1h-26.4c-0.2,0-0.4-0.1-0.6-0.3c-0.1-0.2-0.1-0.4,0-0.6l20.8-40.5c0.1-0.2,0.3-0.3,0.6-0.3h21.1
		c0.3,0,0.6,0.3,0.6,0.6c0,0.1,0,0.2,0,0.2l-15.6,40.5C171.5,157.9,171.3,158.1,171,158.1z M145.7,156.8h24.9l15.1-39.2h-19.8
		L145.7,156.8z"></path><polygon class="st1" points="186.6,116.9 171,157.5 197.3,157.5 207.7,116.9 	"></polygon><path class="st2" d="M197.3,158.1H171c-0.2,0-0.4-0.1-0.5-0.3c-0.1-0.2-0.1-0.4-0.1-0.6l15.6-40.5c0.1-0.2,0.3-0.4,0.6-0.4h21.1
		c0.2,0,0.4,0.1,0.5,0.2c0.1,0.2,0.2,0.4,0.1,0.6l-10.4,40.5C197.9,157.9,197.6,158.1,197.3,158.1z M171.9,156.8h24.9l10.1-39.2H187
		L171.9,156.8z"></path><polygon class="st3" points="207.7,116.9 197.3,157.5 223.7,157.5 228.9,116.9 	"></polygon><path class="st2" d="M223.7,158.1h-26.3c-0.2,0-0.4-0.1-0.5-0.2c-0.1-0.2-0.2-0.4-0.1-0.6l10.4-40.5c0.1-0.3,0.3-0.5,0.6-0.5h21.1
		c0.2,0,0.4,0.1,0.5,0.2c0.1,0.1,0.2,0.3,0.2,0.5l-5.2,40.5C224.2,157.9,224,158.1,223.7,158.1z M198.1,156.8h25l5-39.2h-19.9
		L198.1,156.8z"></path><polygon class="st1" points="228.9,116.9 223.7,157.5 250,157.5 250,116.9 	"></polygon><path class="st2" d="M250,158.1h-26.3c-0.2,0-0.4-0.1-0.5-0.2c-0.1-0.1-0.2-0.3-0.1-0.5l5.2-40.5c0-0.3,0.3-0.6,0.6-0.6H250
		c0.4,0,0.6,0.3,0.6,0.6v40.5C250.6,157.8,250.4,158.1,250,158.1L250,158.1z M224.4,156.8h25v-39.2h-20L224.4,156.8z"></path><polygon class="st3" points="250,116.9 250,157.5 276.3,157.5 271.1,116.9 	"></polygon><path class="st2" d="M276.3,158.1H250c-0.4,0-0.6-0.3-0.6-0.6V117c0-0.4,0.3-0.6,0.6-0.6h21.1c0.3,0,0.6,0.2,0.6,0.6l5.2,40.5
		c0,0.2,0,0.4-0.1,0.5C276.7,158,276.5,158.1,276.3,158.1z M250.6,156.8h25l-5-39.2h-20V156.8z"></path><polygon class="st1" points="271.1,116.9 276.3,157.5 302.7,157.5 292.3,116.9 	"></polygon><path class="st2" d="M302.7,158.1h-26.3c-0.3,0-0.6-0.2-0.6-0.6l-5.2-40.6c0-0.2,0-0.4,0.2-0.5c0.1-0.1,0.3-0.2,0.5-0.2h21.1
		c0.3,0,0.6,0.2,0.6,0.5l10.4,40.5c0,0.2,0,0.4-0.1,0.6C303.1,158,302.9,158.1,302.7,158.1z M276.9,156.8h25l-10.1-39.2h-20
		L276.9,156.8z"></path><polygon class="st3" points="292.3,116.9 302.7,157.5 329,157.5 313.4,116.9 	"></polygon><path class="st2" d="M329,158.1h-26.3c-0.3,0-0.6-0.2-0.6-0.5l-10.4-40.5c0-0.2,0-0.4,0.1-0.6c0.1-0.2,0.3-0.2,0.5-0.2h21.1
		c0.3,0,0.5,0.2,0.6,0.4l15.6,40.5c0.1,0.2,0,0.4-0.1,0.6C329.4,158,329.2,158.1,329,158.1z M303.2,156.8h24.9L313,117.6h-19.9
		L303.2,156.8z"></path><polygon class="st1" points="313.4,116.9 329,157.5 355.4,157.5 334.5,116.9 	"></polygon><path class="st2" d="M355.4,158.1H329c-0.3,0-0.5-0.2-0.6-0.4l-15.6-40.5c-0.1-0.3,0-0.7,0.4-0.8c0.1,0,0.2,0,0.2,0h21.1
		c0.2,0,0.5,0.1,0.6,0.3l20.8,40.5c0.1,0.2,0.1,0.4,0,0.6C355.8,158,355.6,158.1,355.4,158.1z M329.5,156.8h24.9l-20.2-39.2h-19.8
		L329.5,156.8z"></path><polygon class="st3" points="334.5,116.9 355.4,157.5 381.7,157.5 355.7,116.9 	"></polygon><path class="st2" d="M381.7,158.1h-26.3c-0.2,0-0.5-0.1-0.6-0.3L334,117.2c-0.1-0.2-0.1-0.4,0-0.6c0.1-0.2,0.3-0.3,0.5-0.3h21.1
		c0.2,0,0.4,0.1,0.5,0.3l26,40.5c0.1,0.2,0.1,0.4,0,0.6C382.1,158,381.9,158.1,381.7,158.1z M355.8,156.8h24.8l-25.2-39.2h-19.7
		L355.8,156.8z"></path><polygon class="st1" points="355.7,116.9 381.7,157.5 408,157.5 376.8,116.9 	"></polygon><path class="st2" d="M408,158.1h-26.3c-0.2,0-0.4-0.1-0.5-0.3l-26-40.5c-0.2-0.3-0.1-0.7,0.1-0.9c0.1-0.1,0.3-0.1,0.4-0.1h21.1
		c0.2,0,0.4,0.1,0.5,0.2l31.2,40.5c0.1,0.2,0.2,0.5,0.1,0.7C408.5,158,408.3,158.1,408,158.1z M382,156.8h24.7l-30.2-39.2h-19.6
		L382,156.8z"></path><polygon class="st3" points="376.8,116.9 408,157.5 434.4,157.5 397.9,116.9 	"></polygon><path class="st2" d="M434.4,158.1H408c-0.2,0-0.4-0.1-0.5-0.2l-31.2-40.5c-0.1-0.2-0.2-0.5-0.1-0.7c0.1-0.2,0.3-0.4,0.6-0.3h21.1
		c0.2,0,0.4,0.1,0.5,0.2l36.4,40.5c0.2,0.2,0.2,0.5,0.1,0.7C434.9,158,434.6,158.1,434.4,158.1z M408.4,156.8H433l-35.3-39.2h-19.6
		L408.4,156.8z"></path><path class="st1" d="M65.6,157.5H92l0,0v25.9c0,5.1-4.1,9.2-9.2,9.2c0,0,0,0,0,0h-8c-5.1,0-9.2-4.1-9.2-9.2l0,0L65.6,157.5
		C65.6,157.5,65.6,157.5,65.6,157.5z"></path><path class="st2" d="M79.1,193.2h-0.6c-7.5,0-13.5-6.1-13.5-13.5v-22.2c0-0.4,0.3-0.6,0.6-0.6H92c0.4,0,0.6,0.3,0.6,0.6v22.2
		C92.6,187.2,86.6,193.2,79.1,193.2C79.1,193.2,79.1,193.2,79.1,193.2z M66.3,158.1v21.6c0,6.8,5.5,12.3,12.2,12.3c0,0,0,0,0,0h0.6
		c6.7,0,12.2-5.5,12.2-12.2v-21.7H66.3z"></path><path class="st3" d="M92,157.5h26.3l0,0v25.9c0,5.1-4.1,9.2-9.2,9.2c0,0,0,0,0,0h-8c-5,0-9.1-4.1-9.1-9.2V157.5L92,157.5z"></path><path class="st2" d="M105.4,193.2h-0.6c-7.5,0-13.5-6.1-13.5-13.5v-22.3c0-0.4,0.3-0.6,0.6-0.6h26.3c0.4,0,0.6,0.3,0.6,0.6v22.2
		C118.9,187.2,112.9,193.2,105.4,193.2z M92.6,158.1v21.6c0,6.8,5.5,12.3,12.2,12.3c0,0,0,0,0,0h0.6c6.7,0,12.2-5.5,12.2-12.2v-21.7
		H92.6z"></path><path class="st1" d="M118.3,157.5h26.3l0,0v25.9c0,5.1-4.1,9.2-9.2,9.2l0,0h-8c-5.1,0-9.2-4.1-9.2-9.2l0,0L118.3,157.5L118.3,157.5
		L118.3,157.5z"></path><path class="st2" d="M131.8,193.2h-0.6c-7.5,0-13.5-6.1-13.5-13.5v-22.3c0-0.4,0.3-0.6,0.6-0.6h26.3c0.4,0,0.6,0.3,0.6,0.6v22.2
		C145.3,187.2,139.2,193.2,131.8,193.2z M118.9,158.1v21.6c0,6.8,5.5,12.3,12.2,12.3h0h0.6c6.8,0,12.2-5.5,12.2-12.3c0,0,0,0,0,0
		v-21.6L118.9,158.1z"></path><path class="st3" d="M144.6,157.5H171l0,0v25.9c0,5.1-4.1,9.2-9.2,9.2l0,0h-8c-5.1,0-9.2-4.1-9.2-9.2l0,0L144.6,157.5L144.6,157.5z
		"></path><path class="st2" d="M158.1,193.2h-0.6c-7.5,0-13.5-6.1-13.5-13.5v-22.2c0-0.4,0.3-0.6,0.6-0.6H171c0.4,0,0.6,0.3,0.6,0.6v22.2
		C171.6,187.2,165.6,193.2,158.1,193.2L158.1,193.2z M145.3,158.1v21.6c0,6.8,5.5,12.3,12.2,12.3h0h0.6c6.7,0,12.2-5.5,12.2-12.2
		v-21.7L145.3,158.1z"></path><path class="st1" d="M171,157.5h26.3l0,0v25.9c0,5.1-4.1,9.2-9.2,9.2l0,0h-8c-5.1,0-9.2-4.1-9.2-9.2l0,0L171,157.5L171,157.5z"></path><path class="st2" d="M184.4,193.2h-0.6c-7.5,0-13.5-6.1-13.5-13.5v-22.3c0-0.4,0.3-0.6,0.6-0.6h26.3c0.4,0,0.6,0.3,0.6,0.6v22.2
		C198,187.2,191.9,193.2,184.4,193.2z M171.6,158.1v21.6c0,6.8,5.5,12.3,12.2,12.3c0,0,0,0,0,0h0.6c6.7,0,12.2-5.5,12.2-12.2v-21.7
		L171.6,158.1z"></path><path class="st3" d="M197.3,157.5h26.3l0,0v25.9c0,5.1-4.1,9.2-9.2,9.2l0,0h-8c-5.1,0-9.2-4.1-9.2-9.2l0,0L197.3,157.5L197.3,157.5
		z"></path><path class="st2" d="M210.8,193.2h-0.6c-7.5,0-13.5-6.1-13.5-13.5v-22.3c0-0.4,0.3-0.6,0.6-0.6h26.3c0.4,0,0.6,0.3,0.6,0.6v22.2
		C224.3,187.2,218.2,193.2,210.8,193.2z M198,158.1v21.6c0,6.7,5.4,12.2,12.2,12.3h0.6c6.8,0,12.2-5.5,12.2-12.3v-21.6H198z"></path><path class="st1" d="M223.7,157.5H250l0,0v25.9c0,5.1-4.1,9.2-9.2,9.2l0,0h-8c-5.1,0-9.2-4.1-9.2-9.2l0,0L223.7,157.5L223.7,157.5z
		"></path><path class="st2" d="M237.1,193.2h-0.6c-7.5,0-13.5-6-13.5-13.5v0v-22.2c0-0.4,0.3-0.6,0.6-0.6H250c0.4,0,0.6,0.3,0.6,0.6v22.2
		C250.6,187.2,244.6,193.2,237.1,193.2z M224.3,158.1v21.6c0,6.8,5.5,12.3,12.2,12.3c0,0,0,0,0,0h0.6c6.7,0,12.2-5.5,12.2-12.2
		v-21.7H224.3z"></path><path class="st3" d="M250,157.5h26.3l0,0v25.9c0,5.1-4.1,9.2-9.2,9.2l0,0h-8c-5.1,0-9.2-4.1-9.2-9.2l0,0L250,157.5L250,157.5
		L250,157.5z"></path><path class="st2" d="M263.5,193.2h-0.6c-7.5,0-13.5-6.1-13.5-13.5v-22.3c0-0.4,0.3-0.6,0.6-0.6h26.3c0.4,0,0.6,0.3,0.6,0.6v0v22.2
		C277,187.2,270.9,193.2,263.5,193.2z M250.6,158.1v21.6c0,6.8,5.5,12.3,12.2,12.3c0,0,0,0,0,0h0.6c6.7,0,12.2-5.5,12.2-12.2v-21.7
		L250.6,158.1z"></path><path class="st1" d="M276.3,157.5h26.3l0,0v25.9c0,5.1-4.1,9.2-9.2,9.2l0,0h-8c-5.1,0-9.2-4.1-9.2-9.2l0,0L276.3,157.5L276.3,157.5
		L276.3,157.5z"></path><path class="st2" d="M289.8,193.2h-0.6c-7.5,0-13.5-6.1-13.5-13.5v-22.3c0-0.4,0.3-0.6,0.6-0.6l0,0h26.3c0.4,0,0.6,0.3,0.6,0.6v0
		v22.2C303.3,187.2,297.3,193.2,289.8,193.2z M277,158.1v21.6c0,6.8,5.5,12.2,12.2,12.3h0.6c6.7,0,12.2-5.5,12.2-12.3v-21.6H277z"></path><path class="st3" d="M302.7,157.5H329l0,0v25.9c0,5.1-4.1,9.2-9.2,9.2l0,0h-8c-5.1,0-9.2-4.1-9.2-9.2l0,0L302.7,157.5L302.7,157.5
		L302.7,157.5z"></path><path class="st2" d="M316.1,193.2h-0.6c-7.5,0-13.5-6-13.5-13.5c0,0,0,0,0,0v-22.2c0-0.4,0.3-0.6,0.6-0.6l0,0H329
		c0.4,0,0.6,0.3,0.6,0.6v0v22.2C329.6,187.2,323.6,193.2,316.1,193.2z M303.3,158.1v21.6c0,6.8,5.5,12.3,12.2,12.3l0,0h0.6
		c6.7,0,12.2-5.5,12.2-12.2v-21.7L303.3,158.1z"></path><path class="st1" d="M329,157.5h26.3l0,0v25.9c0,5.1-4.1,9.2-9.2,9.2l0,0h-8c-5.1,0-9.2-4.1-9.2-9.2l0,0L329,157.5L329,157.5z"></path><path class="st2" d="M342.5,193.2h-0.6c-7.5,0-13.5-6.1-13.5-13.5v-22.3c0-0.4,0.3-0.6,0.6-0.6l0,0h26.3c0.4,0,0.6,0.3,0.6,0.6v0
		v22.2C356,187.2,349.9,193.2,342.5,193.2z M329.7,158.1v21.6c0,6.8,5.5,12.3,12.2,12.3h0h0.6c6.7,0,12.2-5.5,12.2-12.2v-21.7
		L329.7,158.1z"></path><path class="st3" d="M355.4,157.5h26.3l0,0v25.9c0,5.1-4.1,9.2-9.2,9.2l0,0h-8c-5.1,0-9.2-4.1-9.2-9.2l0,0L355.4,157.5L355.4,157.5
		z"></path><path class="st2" d="M368.8,193.2h-0.6c-7.5,0-13.5-6.1-13.5-13.5v-22.3c0-0.4,0.3-0.6,0.6-0.6l0,0h26.3c0.4,0,0.6,0.3,0.6,0.6v0
		v22.2C382.3,187.2,376.3,193.2,368.8,193.2z M356,158.1v21.6c0,6.8,5.5,12.3,12.2,12.3c0,0,0,0,0,0h0.6c6.7,0,12.2-5.5,12.2-12.2
		v-21.7H356z"></path><path class="st1" d="M381.7,157.5H408l0,0v25.9c0,5.1-4.1,9.2-9.2,9.2l0,0h-8c-5.1,0-9.2-4.1-9.2-9.2l0,0L381.7,157.5L381.7,157.5
		L381.7,157.5z"></path><path class="st2" d="M395.2,193.2h-0.6c-7.5,0-13.5-6.1-13.5-13.5v-22.3c0-0.4,0.3-0.6,0.6-0.6l0,0H408c0.4,0,0.6,0.3,0.6,0.6v0
		v22.2C408.6,187.2,402.6,193.2,395.2,193.2z M382.3,158.1v21.6c0,6.8,5.5,12.3,12.2,12.3l0,0h0.6c6.7,0,12.2-5.5,12.2-12.2v-21.7
		L382.3,158.1z"></path><path class="st3" d="M408,157.5h26.3l0,0v25.9c0,5.1-4.1,9.2-9.2,9.2l0,0h-8c-5.1,0-9.2-4.1-9.2-9.2l0,0L408,157.5L408,157.5
		L408,157.5z"></path><path class="st2" d="M421.5,193.2h-0.6c-7.5,0-13.5-6.1-13.5-13.5v-22.3c0-0.4,0.3-0.6,0.6-0.6l0,0h26.3c0.4,0,0.6,0.3,0.6,0.6v0
		v22.2C435,187.2,429,193.2,421.5,193.2z M408.7,158.1v21.6c0,6.8,5.5,12.3,12.2,12.3l0,0h0.6c6.7,0,12.2-5.5,12.2-12.2v-21.7
		L408.7,158.1z"></path></g></svg>